<?xml version="1.0" standalone="no"?>
<!DOCTYPE svg PUBLIC "-//W3C//DTD SVG 20010904//EN"
 "http://www.w3.org/TR/2001/REC-SVG-20010904/DTD/svg10.dtd">
<svg version="1.0" xmlns="http://www.w3.org/2000/svg"
 width="640.000000pt" height="640.000000pt" viewBox="0 0 640.000000 640.000000"
 preserveAspectRatio="xMidYMid meet">

<g transform="translate(0.000000,640.000000) scale(0.100000,-0.100000)"
fill="#000000" stroke="none">
<path d="M243 6382 c-11 -9 -72 -93 -133 -186 l-113 -169 6 -53 c10 -102 67
-190 152 -235 l45 -24 0 -528 0 -529 29 -29 29 -29 842 0 842 0 29 29 29 29 0
529 0 528 45 24 c85 45 142 133 152 235 l6 53 -112 169 c-62 93 -122 177 -133
187 -19 16 -74 17 -857 17 -777 0 -838 -2 -858 -18z m322 -647 c51 -25 72 -30
136 -30 66 0 84 4 137 32 l62 32 62 -32 c53 -28 71 -32 138 -32 67 0 85 4 138
32 l62 32 61 -32 c86 -44 163 -48 250 -13 77 30 105 32 154 9 l35 -17 0 -458
0 -458 -200 0 -200 0 0 271 0 271 -29 29 -29 29 -242 0 -242 0 -29 -29 -29
-29 0 -271 0 -271 -200 0 -200 0 0 458 0 457 48 27 c26 15 49 26 52 25 3 -1
32 -15 65 -32z"/>
<path d="M4442 6383 c-11 -10 -70 -93 -131 -185 -124 -187 -128 -201 -91 -301
25 -68 75 -127 134 -158 l46 -24 0 -528 0 -529 29 -29 29 -29 842 0 842 0 29
29 29 29 0 529 0 528 45 24 c85 45 142 133 152 235 l6 53 -112 169 c-62 93
-122 177 -133 187 -19 16 -75 17 -858 17 -783 0 -839 -1 -858 -17z m323 -648
c51 -25 72 -30 136 -30 66 0 84 4 137 32 l62 32 62 -32 c53 -28 71 -32 138
-32 67 0 85 4 138 32 l62 32 62 -32 c53 -28 71 -32 138 -32 67 0 85 4 139 32
l62 32 50 -27 49 -27 0 -457 0 -458 -200 0 -200 0 0 271 0 271 -29 29 -29 29
-242 0 -242 0 -29 -29 -29 -29 0 -271 0 -271 -200 0 -200 0 0 458 0 457 48 27
c26 15 49 26 52 25 3 -1 32 -15 65 -32z"/>
<path d="M2234 5366 c-37 -37 -43 -70 -20 -115 8 -15 26 -32 41 -39 19 -9 254
-12 946 -12 999 0 961 -2 987 55 15 33 15 57 0 90 -26 57 13 55 -994 55 l-926
0 -34 -34z"/>
<path d="M1034 4366 l-34 -34 0 -1132 0 -1132 34 -34 c36 -36 67 -42 111 -22
58 26 55 -30 55 1187 0 847 -3 1126 -12 1146 -7 15 -24 33 -39 41 -45 23 -78
17 -115 -20z"/>
<path d="M5234 4366 l-34 -34 0 -1126 c0 -788 3 -1132 11 -1149 12 -27 58 -57
88 -57 33 0 67 20 84 50 16 26 17 122 17 1155 l0 1127 -34 34 c-24 25 -43 34
-66 34 -23 0 -41 -9 -66 -34z"/>
<path d="M3148 4289 c-21 -12 -1154 -484 -1185 -493 -12 -4 -32 -19 -43 -33
-20 -25 -20 -38 -20 -715 l0 -690 29 -29 29 -29 1242 0 1242 0 29 31 29 31 0
688 0 689 -22 25 c-16 16 -190 93 -548 241 -289 120 -565 235 -614 256 -90 39
-136 47 -168 28z m602 -427 l545 -227 3 -567 2 -568 -150 0 -150 0 0 421 0
421 -29 29 -29 29 -792 0 -792 0 -29 -29 -29 -29 0 -421 0 -421 -100 0 -100 0
0 568 0 567 548 227 c301 125 549 227 552 228 3 0 250 -102 550 -228z"/>
<path d="M242 1783 c-11 -10 -71 -94 -133 -187 l-112 -169 6 -53 c10 -102 67
-190 152 -235 l45 -24 0 -527 0 -526 31 -31 31 -31 840 0 840 0 29 29 29 29 0
531 c0 520 0 530 20 536 11 3 42 24 69 45 59 47 100 123 108 203 l6 54 -112
169 c-62 93 -122 177 -133 187 -19 16 -75 17 -858 17 -783 0 -839 -1 -858 -17z
m323 -648 c84 -42 182 -42 273 -1 l62 29 61 -28 c107 -48 170 -45 315 15 28
12 36 10 90 -16 49 -24 71 -29 135 -29 66 0 84 4 138 32 l62 32 50 -27 49 -27
0 -457 0 -458 -200 0 -200 0 0 271 0 271 -29 29 -29 29 -242 0 -242 0 -29 -29
-29 -29 0 -271 0 -271 -200 0 -200 0 0 458 0 457 48 27 c26 15 49 26 52 25 3
-1 32 -15 65 -32z"/>
<path d="M4442 1783 c-11 -10 -70 -93 -131 -185 -124 -187 -128 -201 -91 -301
25 -68 75 -127 134 -158 l46 -24 0 -528 0 -529 29 -29 29 -29 842 0 842 0 29
29 29 29 0 530 0 530 31 12 c45 19 118 94 140 146 12 25 23 69 26 98 l6 53
-112 169 c-62 93 -122 177 -133 187 -19 16 -75 17 -858 17 -783 0 -839 -1
-858 -17z m323 -648 c51 -25 72 -30 136 -30 66 0 84 4 137 32 l62 32 62 -32
c53 -28 71 -32 138 -32 67 0 85 4 138 32 l62 32 62 -32 c53 -28 71 -32 138
-32 67 0 85 4 139 32 l62 32 50 -27 49 -27 0 -457 0 -458 -200 0 -200 0 0 271
0 271 -29 29 -29 29 -242 0 -242 0 -29 -29 -29 -29 0 -271 0 -271 -200 0 -200
0 0 458 0 457 48 27 c26 15 49 26 52 25 3 -1 32 -15 65 -32z"/>
<path d="M2251 786 c-67 -37 -65 -143 4 -174 19 -9 254 -12 946 -12 999 0 961
-2 987 55 23 51 7 107 -39 131 -40 20 -1861 20 -1898 0z"/>
</g>
</svg>
