<?xml version="1.0" standalone="no"?>
<!DOCTYPE svg PUBLIC "-//W3C//DTD SVG 20010904//EN"
 "http://www.w3.org/TR/2001/REC-SVG-20010904/DTD/svg10.dtd">
<svg version="1.0" xmlns="http://www.w3.org/2000/svg"
 width="980.000000pt" height="808.000000pt" viewBox="0 0 980.000000 808.000000"
 preserveAspectRatio="xMidYMid meet">
<metadata>
Created by potrace 1.15, written by Peter Selinger 2001-2017
</metadata>
<g transform="translate(0.000000,808.000000) scale(0.100000,-0.100000)"
fill="#000000" stroke="none">
<path d="M2325 8060 c-88 -13 -286 -70 -405 -117 -658 -258 -1168 -791 -1384
-1448 -82 -252 -116 -463 -116 -730 0 -339 64 -639 202 -949 130 -293 265
-484 560 -794 l145 -153 -204 -552 c-871 -2356 -1097 -2983 -1118 -3100 -10
-54 16 -116 70 -166 l45 -41 4778 0 4779 0 45 39 c24 22 53 58 63 80 17 39 17
43 0 108 -47 180 -288 849 -1120 3113 -653 1777 -738 1992 -804 2039 l-29 21
-1375 0 -1374 0 -6 298 c-8 397 -31 555 -119 812 -167 486 -485 900 -913 1185
-265 176 -659 331 -901 355 -114 11 -745 11 -819 0z m720 -394 c270 -35 541
-140 786 -305 653 -438 979 -1265 799 -2027 -63 -271 -193 -547 -345 -739
-125 -157 -1245 -1293 -1458 -1479 -59 -51 -70 -58 -90 -49 -58 27 -1243 1213
-1472 1473 -184 209 -335 525 -403 840 -24 117 -26 142 -26 380 -1 241 1 262
27 383 96 447 316 816 658 1102 258 216 559 354 929 426 79 16 127 18 290 14
107 -3 245 -11 305 -19z m3459 -2763 c-38 -333 -171 -700 -326 -901 -105 -136
-261 -270 -398 -341 -158 -83 -283 -111 -600 -136 -377 -30 -538 -67 -791
-180 -333 -149 -617 -375 -870 -690 -223 -277 -399 -657 -473 -1018 -71 -342
-44 -871 60 -1209 5 -17 -54 -18 -1139 -18 -1101 0 -1432 5 -1458 20 -8 6 2
46 39 146 50 138 880 2396 1013 2760 39 105 75 197 79 204 7 11 101 -77 362
-335 358 -355 471 -456 559 -500 101 -52 277 -54 372 -5 97 50 217 159 666
605 490 486 819 825 954 980 138 157 268 374 359 597 l52 128 776 0 776 0 -12
-107z m1123 94 c2 -3 32 -81 66 -174 l62 -168 -1 -145 c-3 -317 -85 -679 -218
-965 -126 -270 -337 -495 -576 -615 -157 -79 -288 -107 -565 -121 -360 -17
-559 -51 -815 -136 -633 -210 -1050 -653 -1169 -1240 -57 -281 -46 -567 35
-910 13 -57 24 -105 24 -108 0 -3 -209 -5 -465 -5 l-464 0 -37 117 c-65 210
-85 325 -91 543 -11 392 40 652 187 955 171 350 427 637 750 839 248 155 497
228 900 261 102 8 223 22 270 30 337 59 590 185 805 400 305 304 483 700 582
1292 l28 166 344 -6 c188 -3 345 -8 348 -10z m462 -1254 c9 -24 470 -1279
1038 -2826 96 -263 172 -481 169 -485 -20 -19 -539 -23 -2375 -18 -1113 3
-2026 7 -2028 10 -10 10 -55 190 -74 296 -27 146 -37 470 -20 590 35 237 171
486 364 665 148 138 337 246 562 319 200 66 321 85 685 111 355 26 517 57 698
137 254 111 512 344 679 613 103 165 237 466 258 578 8 44 28 48 44 10z"/>
<path d="M2635 6884 c-241 -32 -416 -99 -580 -222 -324 -241 -489 -615 -447
-1014 29 -277 112 -456 306 -656 220 -227 438 -330 741 -349 447 -27 869 217
1071 618 82 164 114 308 114 515 0 293 -99 538 -304 752 -168 175 -358 283
-586 332 -84 19 -258 32 -315 24z m278 -433 c132 -35 201 -75 303 -176 77 -76
98 -105 137 -185 64 -130 81 -201 81 -335 0 -86 -5 -126 -23 -185 -99 -323
-363 -521 -691 -521 -290 0 -523 149 -652 418 -35 71 -41 95 -50 192 -7 74 -7
145 -1 216 9 93 15 115 51 188 51 102 125 193 215 263 78 61 192 120 269 140
74 19 261 11 361 -15z"/>
</g>
</svg>
