<svg id="Layer_35" enable-background="new 0 0 64 64" height="512" viewBox="0 0 64 64" width="512" xmlns="http://www.w3.org/2000/svg"><path d="m32.127 17c.282 1.15 1.022 2 1.873 2s1.59-.85 1.873-2h-1.873z"/><circle cx="17" cy="9" r="6"/><circle cx="34" cy="9" r="6"/><path d="m19.241 17.262.795 9.116-3.036 3.036-3.037-3.036.795-9.116c-4.436 1.022-7.758 4.996-7.758 9.738v7c0 1.654 1.346 3 3 3v-14h2v36c0 1.103.897 2 2 2s2-.897 2-2v-25h2v25c0 1.103.897 2 2 2s2-.897 2-2v-36h2v14c1.654 0 3-1.346 3-3v-1.042-5.958c0-4.742-3.322-8.716-7.759-9.738z"/><path d="m55.6 9c-.229 0-.457.057-.659.164l-12.265 6.542c-1.464.78-3.1 1.204-4.756 1.268-.363 2.292-1.981 4.026-3.92 4.026-1.932 0-3.547-1.721-3.919-4h-6.462c3.239 2.151 5.381 5.828 5.381 10v5.958 1.042 25c0 1.103.897 2 2 2s2-.897 2-2v-24-1h2v1 24c0 1.103.897 2 2 2s2-.897 2-2v-34.646c0-1.814.986-3.489 2.572-4.37l14.708-8.172c.444-.247.72-.716.72-1.224v-.188c0-.772-.628-1.4-1.4-1.4z"/><path d="m10.381 17h-1.881c-.827 0-1.5.673-1.5 1.5 0 .452.216.857.546 1.136.798-1.023 1.752-1.917 2.835-2.636z"/><path d="m16.788 17.011-.752 8.611.964.964.963-.964-.752-8.611c-.07-.002-.14-.011-.211-.011s-.141.009-.212.011z"/></svg>